<?xml version="1.0" encoding="utf-8"?>
<!-- Generator: Adobe Illustrator 24.1.2, SVG Export Plug-In . SVG Version: 6.00 Build 0)  -->
<svg version="1.1" id="Layer_1" xmlns="http://www.w3.org/2000/svg" xmlns:xlink="http://www.w3.org/1999/xlink" x="0px" y="0px"
	 viewBox="0 0 400 100" style="enable-background:new 0 0 400 100;" xml:space="preserve">
<style type="text/css">
	.st0{fill:#FF0000;}
	.st1{fill:#FF2C2C;}
	.st2{fill:none;}
</style>
<g id="Layer_2_1_">
	<g id="Layer_1-2">
		<g id="Layer_2-2">
			<g id="Layer_1-2-2">
				<polygon class="st0" points="28.5,0 303.5,100 351.5,100 229.5,0 				"/>
				<polygon class="st1" points="32,0 3,0 3,2 3,100 304,100 297.6,96.8 286.5,92.7 257.2,81.6 232,72.8 205.2,63.2 174.4,52 
					141.6,40 109.6,28.8 84.8,19.6 54.8,8.8 				"/>
				<polygon class="st1" points="230,0 299.2,57.1 352,100 400,100 400,0 				"/>
				<polyline class="st1" points="298,98.5 304,100 301,100 				"/>
				<polyline class="st1" points="302.4,99.6 295.5,97.2 298.6,98.3 301.4,99.2 247,91 255.7,82.2 				"/>
				<polyline class="st1" points="300,98.8 295,97 298,99 				"/>
				<polyline class="st1" points="315,70.1 351.5,100 351,81 				"/>
				<line class="st2" x1="300.6" y1="99" x2="287" y2="97"/>
			</g>
		</g>
		<path class="st1" d="M230,0l50,41.3L230,0z"/>
		<polyline class="st1" points="230,0 267.5,31.3 263.2,0 		"/>
		<polygon class="st1" points="229.5,0 248.6,15.6 248.8,0 		"/>
		<polygon class="st1" points="248.6,15.6 252.5,18.7 254.4,12.4 		"/>
		<polygon class="st1" points="267.5,31.3 283.8,44.4 280,28 		"/>
		<polygon class="st1" points="41.5,4.8 131.5,37.5 56,41 		"/>
		<polygon class="st1" points="40.4,4.3 86.5,21.2 39.1,29.6 		"/>
	</g>
</g>
<polygon class="st1" points="65.8,13.5 82.9,19.8 100.5,26.2 115.3,31.5 118.5,32.7 124.7,35 127.6,36 132,37.7 135.5,38.8 
	101.7,35.7 "/>
<polygon class="st1" points="302.1,99.5 291,95.4 290.1,97.4 "/>
<polygon class="st1" points="163.8,49.2 176.3,53.7 183.3,56.3 195.8,60.8 199.1,62 203.1,63.5 204.6,64 188.6,62.8 "/>
<path class="st1" d="M3,2"/>
<polyline class="st1" points="3,0 0,0 0,100 3,100 "/>
<polygon class="st1" points="277.9,39.7 283.7,44.4 288.6,48.4 291.9,51.2 295.6,54.1 295,49.2 "/>
<polygon class="st1" points="304.7,61.6 315.8,70.8 313.5,63 "/>
<polygon class="st1" points="351.5,100 351.5,98.6 352.7,99.9 352,100 "/>
</svg>
