<svg xmlns="http://www.w3.org/2000/svg" viewBox="0 0 400 100"><defs><style>.cls-1{fill:#3a35ff;}.cls-2{fill:#1572ff;}.cls-3{fill:none;}</style></defs><g id="Layer_2" data-name="Layer 2"><g id="Layer_1-2" data-name="Layer 1"><g id="Layer_2-2" data-name="Layer 2"><g id="Layer_1-2-2" data-name="Layer 1-2"><polygon class="cls-1" points="28.5 0 303.5 100 351.5 100 229.5 0 28.5 0"/><polygon class="cls-2" points="29 0 0 0 0 2 0 100 301 100 294.6 96.8 292.96 96.2 283.5 92.73 254.2 81.6 229 72.8 202.2 63.2 171.4 52 138.6 40 106.6 28.8 81.8 19.6 51.8 8.8 29 0"/><polygon class="cls-2" points="230 0 299.2 57.13 352 100 400 100 400 0 230 0"/><polyline class="cls-2" points="297.96 98.48 304 100 301 100"/><polyline class="cls-2" points="302.38 99.59 295.48 97.24 298.64 98.31 301.41 99.24"/><polyline class="cls-2" points="300.04 98.8 295 97 298 99"/><polyline class="cls-2" points="318.31 65.93 305.21 62.18 307.65 63.99 315 70.08 351.5 100 351 81"/><line class="cls-3" x1="300.64" y1="99" x2="287" y2="97"/></g></g><polyline class="cls-2" points="351.06 99.24 351.5 100 351.87 99.78 352.8 99.24 352.44 100"/><polygon class="cls-2" points="351.45 98 351.5 100 353.52 100 351.45 98"/><polygon class="cls-2" points="229.5 0 267.48 31.26 268.38 6.24 229.5 0"/><polyline class="cls-2" points="267.48 31.26 280.44 41.7 285.12 29.28"/><polygon class="cls-2" points="295 97 304 100 295 100 295 97"/><polygon class="cls-2" points="40.74 4.53 58.18 10.85 68.4 14.45 78.77 18.34 87.84 21.5 97.06 24.96 111.89 30.43 125.71 35.18 130.75 37.06 124.13 41.52 40.74 4.53"/><polygon class="cls-2" points="280.44 41.7 289.08 48.86 291.17 39.58 280.44 41.7"/><polygon class="cls-2" points="298.64 98.31 292.82 99 292.96 96.2 298.64 98.31"/><polyline class="cls-2" points="307.44 47.5 286.39 46.63 306.82 63.37 315 70.08 315 66.73"/><line class="cls-1" x1="305.21" y1="62.18" x2="318.24" y2="72.77"/><line class="cls-1" x1="304.42" y1="61.25" x2="317.84" y2="72.44"/><polygon class="cls-2" points="28.5 0 148.9 43.82 256.78 82.58 298.64 98.31 44.5 91.49 28.5 0"/></g></g></svg>