<svg xmlns="http://www.w3.org/2000/svg" viewBox="0 0 400 100"><defs><style>.cls-1{fill:red;}.cls-2{fill:#ff2c2c;}.cls-3{fill:none;}</style></defs><g id="Layer_2" data-name="Layer 2"><g id="Layer_1-2" data-name="Layer 1"><g id="Layer_2-2" data-name="Layer 2"><g id="Layer_1-2-2" data-name="Layer 1-2"><g id="Layer_2-2-2" data-name="Layer 2-2"><g id="Layer_1-2-2-2" data-name="Layer 1-2-2"><polygon class="cls-1" points="28.5 0 303.5 100 351.5 100 229.5 0 28.5 0"/><polygon class="cls-2" points="32 0 3 0 3 2 3 100 304 100 297.6 96.8 286.5 92.73 257.2 81.6 232 72.8 205.2 63.2 174.4 52 141.6 40 109.6 28.8 84.8 19.6 54.8 8.8 32 0"/><polygon class="cls-2" points="230 0 299.2 57.13 352 100 400 100 400 0 230 0"/><polyline class="cls-2" points="297.96 98.48 304 100 301 100"/><polyline class="cls-2" points="302.38 99.59 295.48 97.24 298.64 98.31 301.41 99.24 247 91 255.72 82.18"/><polyline class="cls-2" points="300.04 98.8 295 97 298 99"/><polyline class="cls-2" points="315 70.08 351.5 100 351 81"/><line class="cls-3" x1="300.64" y1="99" x2="287" y2="97"/></g></g><path class="cls-2" d="M230,0l50,41.27Z"/><polyline class="cls-2" points="230 0 267.55 31.3 263.23 0"/><polygon class="cls-2" points="229.5 0 248.59 15.65 248.78 0 229.5 0"/><polygon class="cls-2" points="248.59 15.65 252.48 18.73 254.37 12.41 248.59 15.65"/><polygon class="cls-2" points="267.55 31.3 283.78 44.4 279.98 28.05 267.55 31.3"/><polygon class="cls-2" points="41.5 4.82 131.46 37.5 55.95 41.01 41.5 4.82"/><polygon class="cls-2" points="40.42 4.29 86.48 21.16 39.09 29.59 40.42 4.29"/></g></g><polygon class="cls-2" points="65.77 13.55 82.87 19.78 100.51 26.18 115.27 31.55 118.55 32.74 124.67 34.97 127.58 36.01 132.05 37.67 135.47 38.82 101.66 35.69 65.77 13.55"/><polygon class="cls-2" points="302.11 99.52 291 95.38 290.07 97.45 302.11 99.52"/><polygon class="cls-2" points="163.77 49.16 176.27 53.73 183.29 56.28 195.76 60.83 199.08 62.04 203.07 63.48 204.61 64.05 188.59 62.81 163.77 49.16"/><polyline class="cls-2" points="3 0 0 0 0 100 3 100"/><polygon class="cls-2" points="277.94 39.71 283.67 44.4 288.62 48.45 291.87 51.15 295.57 54.14 295 49.24 277.94 39.71"/><polygon class="cls-2" points="304.68 61.63 315.85 70.78 313.55 62.97 304.68 61.63"/><polygon class="cls-2" points="351.5 100 351.5 98.6 352.7 99.89 352 100 351.5 100"/></g></g></svg>