<svg xmlns="http://www.w3.org/2000/svg" viewBox="0 0 400 100"><defs><style>.cls-1{fill:#c91d8d;}.cls-2{fill:#d400cb;}.cls-3{fill:#ff2c2c;}</style></defs><g id="Layer_2" data-name="Layer 2"><g id="Layer_1-2" data-name="Layer 1"><polygon class="cls-1" points="28.5 0 303.5 100 351.5 100 229.5 0 28.5 0"/><polygon class="cls-2" points="29 0 0 0 0 2 0 100 301 100 294.6 96.8 283.5 92.73 254.2 81.6 229 72.8 202.2 63.2 171.4 52 138.6 40 106.6 28.8 81.8 19.6 51.8 8.8 29 0"/><polygon class="cls-2" points="230 0 299.2 57.13 352 100 400 100 400 0 230 0"/><polyline class="cls-3" points="297.96 98.48 304 100 301 100"/><polyline class="cls-2" points="302.38 99.59 295.48 97.24 298.64 98.31 301.41 99.24 247 91 255.72 82.18"/><polyline class="cls-3" points="300.04 98.8 295 97 298 99"/><polyline class="cls-2" points="315 70.08 351.5 100 351 81"/><line class="cls-3" x1="300.64" y1="99" x2="287" y2="97"/></g></g></svg>