<svg xmlns="http://www.w3.org/2000/svg" viewBox="0 0 400 100"><defs><style>.cls-1{fill:#c91d8d;}.cls-2{fill:#d400cb;}.cls-3{fill:none;}</style></defs><g id="Layer_2" data-name="Layer 2"><g id="Layer_1-2" data-name="Layer 1"><g id="Layer_2-2" data-name="Layer 2"><g id="Layer_1-2-2" data-name="Layer 1-2"><polygon class="cls-1" points="28.5 0 303.5 100 351.5 100 229.5 0 28.5 0"/><polygon class="cls-2" points="29 0 0 0 0 2 0 100 301 100 294.6 96.8 283.5 92.73 254.2 81.6 229 72.8 202.2 63.2 171.4 52 138.6 40 129.36 36.77 106.6 28.8 81.8 19.6 51.8 8.8 29 0"/><polygon class="cls-2" points="230 0 299.2 57.13 352 100 400 100 400 0 230 0"/><polyline class="cls-2" points="297.96 98.48 304 100 301 100"/><polyline class="cls-2" points="302.38 99.59 295.48 97.24 298.64 98.31 301.41 99.24 247 91 255.72 82.18"/><polyline class="cls-2" points="300.04 98.8 295 97 298 99"/><polyline class="cls-2" points="315 70.08 351.5 100 351 81"/><line class="cls-3" x1="300.64" y1="99" x2="287" y2="97"/></g></g><polygon class="cls-2" points="125.4 35.22 104.39 27.6 94.27 23.92 93.32 23.57 86.83 21.21 56.01 10 44.04 5.64 40.02 4.08 46.2 16.5 131.96 37.68 125.4 35.22"/><polygon class="cls-2" points="229.5 0 244.16 12.01 256.69 22.29 263.84 28.15 271.79 34.66 279.74 41.14 282.62 43.55 290.75 50.2 294.44 53.34 260.05 18.23 230.44 0 229.5 0"/><polygon class="cls-2" points="357.6 96 351.5 100 360.48 99 357.6 96"/></g></g></svg>