<svg xmlns="http://www.w3.org/2000/svg" viewBox="0 0 400.5 100"><defs><style>.cls-1{fill:#ffc230;}.cls-2{fill:#ffea44;}</style></defs><g id="Layer_2" data-name="Layer 2"><g id="Layer_1-2" data-name="Layer 1"><path class="cls-1" d="M0,0Q6.65,0,13.1.06q4.84,0,9.6.11,8,.12,15.68.33C322.81,8.1,332,100,332,100s15.5-37.5,0-53c-10.29-10.29-26.76-19.7-36.66-29.55-5-5-8.34-10.07-8.34-15.45,0-2-18-2-18-2H0Z"/><polygon class="cls-2" points="0.5 0 1.5 100 332.5 100 331.19 93.64 327.05 85.41 318.29 73.87 308.62 64.59 298.96 57.17 284.44 48.11 268.43 40.07 253.16 33.72 234.96 27.4 214.71 21.6 197.03 17.38 175.14 13.04 145.51 8.45 119 5.36 92.14 3.05 65.7 1.2 51.5 0 0.5 0"/><polygon class="cls-2" points="400.5 0 400.5 100 332.5 100 337.69 79.96 338.89 64.8 336.23 53.23 328.92 44.1 310.38 29.75 298.59 20.47 292.16 13.98 288.42 8.15 284.08 0.83 400.5 0"/></g></g></svg>